<svg height="512" viewBox="0 0 128 128" width="512" xmlns="http://www.w3.org/2000/svg"><g id="Circle_Grid" data-name="Circle Grid"><circle cx="64" cy="64" fill="#ef5261" r="64"/></g><g id="icon"><path d="m88.611 43.6-2.322-7.88a2 2 0 0 0 -1.918-1.435h-20.671a2 2 0 0 0 -1.918 1.435l-2.319 7.88z" fill="#dbd8dd"/><path d="m37.622 38.269h6.288a1 1 0 0 1 1 1v3.895a0 0 0 0 1 0 0h-8.288a0 0 0 0 1 0 0v-3.895a1 1 0 0 1 1-1z" fill="#575b6d"/><path d="m105 46.517v7.79h-82v-7.79a3.944 3.944 0 0 1 3.94-3.95h74.12a3.95 3.95 0 0 1 3.94 3.95z" fill="#dbd8dd"/><path d="m105 81.987v7.79a3.941 3.941 0 0 1 -3.94 3.94h-74.119a3.935 3.935 0 0 1 -3.941-3.94v-7.79z" fill="#dbd8dd"/><path d="m22.999 54.302h82v27.688h-82z" fill="#575b6d"/><circle cx="74.955" cy="68.146" fill="#414451" r="19.369"/><circle cx="74.955" cy="68.146" fill="#575b6d" r="15.55"/><circle cx="74.955" cy="68.146" fill="#69b0ee" r="13.656"/><circle cx="74.955" cy="68.146" fill="#419be9" r="7.972"/><circle cx="69.794" cy="63.805" fill="#eeefee" r="3.631"/><circle cx="32.344" cy="48.625" fill="#ef5261" r="2.415"/><circle cx="42.977" cy="48.625" fill="#2cbfae" r="2.415"/><path d="m83.057 36.958 2 6.209h-22.04l2-6.209z" fill="#575b6d"/></g></svg>